<svg width="200" height="10" xmlns="http://www.w3.org/2000/svg">
  <path d="M0,5 L4,5 M6,5 L10,5 M12,4 L20,6 M22,5 L30,5 M32,5 L40,5 M42,5 L44,5 M46,4 L50,6 M52,5 L60,5 M62,5 L70,5 M72,5 L74,5 M76,4 L80,6 M82,5 L90,5 M92,5 L100,5 M102,5 L110,5 M112,5 L114,5 M116,4 L120,6 M122,5 L130,5 M132,5 L140,5 M142,5 L144,5 M146,4 L150,6 M152,5 L160,5 M162,5 L170,5 M172,5 L174,5 M176,4 L180,6 M182,5 L190,5 M192,5 L200,5"
        stroke="#000000" stroke-width="8" fill="none" stroke-dasharray="8,2" />
</svg>
